<svg width="24" height="24" viewBox="0 0 24 24" fill="none" xmlns="http://www.w3.org/2000/svg">
<path d="M17 3.34001C18.5083 4.21087 19.7629 5.46054 20.6398 6.96531C21.5167 8.47009 21.9854 10.1778 21.9994 11.9194C22.0135 13.6609 21.5725 15.376 20.72 16.8947C19.8676 18.4135 18.6332 19.6832 17.1392 20.5783C15.6452 21.4734 13.9434 21.9628 12.2021 21.9981C10.4608 22.0333 8.74055 21.6132 7.21155 20.7793C5.68256 19.9453 4.39787 18.7265 3.48467 17.2435C2.57146 15.7605 2.06141 14.0647 2.005 12.324L2 12L2.005 11.676C2.061 9.94901 2.56355 8.26598 3.46364 6.79101C4.36373 5.31604 5.63065 4.09947 7.14089 3.2599C8.65113 2.42033 10.3531 1.98641 12.081 2.00045C13.8089 2.01449 15.5036 2.47601 17 3.34001ZM15 14H9L8.883 14.007C8.63995 14.0359 8.41594 14.153 8.25341 14.336C8.09088 14.519 8.00111 14.7553 8.00111 15C8.00111 15.2448 8.09088 15.481 8.25341 15.664C8.41594 15.8471 8.63995 15.9641 8.883 15.993L9 16H15L15.117 15.993C15.36 15.9641 15.5841 15.8471 15.7466 15.664C15.9091 15.481 15.9989 15.2448 15.9989 15C15.9989 14.7553 15.9091 14.519 15.7466 14.336C15.5841 14.153 15.36 14.0359 15.117 14.007L15 14ZM9.01 9.00001L8.883 9.00701C8.63995 9.03592 8.41594 9.15297 8.25341 9.33598C8.09088 9.51899 8.00111 9.75525 8.00111 10C8.00111 10.2448 8.09088 10.481 8.25341 10.664C8.41594 10.8471 8.63995 10.9641 8.883 10.993L9 11L9.127 10.993C9.37005 10.9641 9.59406 10.8471 9.75659 10.664C9.91912 10.481 10.0089 10.2448 10.0089 10C10.0089 9.75525 9.91912 9.51899 9.75659 9.33598C9.59406 9.15297 9.37005 9.03592 9.127 9.00701L9.01 9.00001ZM15.01 9.00001L14.883 9.00701C14.64 9.03592 14.4159 9.15297 14.2534 9.33598C14.0909 9.51899 14.0011 9.75525 14.0011 10C14.0011 10.2448 14.0909 10.481 14.2534 10.664C14.4159 10.8471 14.64 10.9641 14.883 10.993L15 11L15.127 10.993C15.37 10.9641 15.5941 10.8471 15.7566 10.664C15.9191 10.481 16.0089 10.2448 16.0089 10C16.0089 9.75525 15.9191 9.51899 15.7566 9.33598C15.5941 9.15297 15.37 9.03592 15.127 9.00701L15.01 9.00001Z" fill="#E1F1FF"/>
</svg>
