<svg width="24" height="24" viewBox="0 0 24 24" fill="none" xmlns="http://www.w3.org/2000/svg">
<path d="M17 3.34001C18.5083 4.21087 19.7629 5.46054 20.6398 6.96531C21.5167 8.47009 21.9854 10.1778 21.9994 11.9194C22.0135 13.6609 21.5725 15.376 20.72 16.8947C19.8676 18.4135 18.6332 19.6832 17.1392 20.5783C15.6452 21.4734 13.9434 21.9628 12.2021 21.9981C10.4608 22.0333 8.74055 21.6132 7.21155 20.7793C5.68256 19.9453 4.39787 18.7265 3.48467 17.2435C2.57146 15.7605 2.06141 14.0647 2.005 12.324L2 12L2.005 11.676C2.061 9.94901 2.56355 8.26598 3.46364 6.79101C4.36373 5.31604 5.63065 4.09947 7.14089 3.2599C8.65113 2.42033 10.3531 1.98641 12.081 2.00045C13.8089 2.01449 15.5036 2.47601 17 3.34001ZM15 13H9C8.73478 13 8.48043 13.1054 8.29289 13.2929C8.10536 13.4804 8 13.7348 8 14V14.05C8.00002 15.07 8.3921 16.0509 9.09512 16.7898C9.79815 17.5288 10.7583 17.9692 11.777 18.02L12.004 18.025C13.0259 18.0176 14.0067 17.6219 14.7476 16.9181C15.4886 16.2144 15.9341 15.2552 15.994 14.235L16 14.029C16.0039 13.8953 15.9809 13.7621 15.9324 13.6374C15.8839 13.5127 15.8108 13.399 15.7176 13.3031C15.6243 13.2071 15.5128 13.1309 15.3895 13.0788C15.2662 13.0268 15.1338 13 15 13ZM9.01 8.00001L8.883 8.00701C8.6299 8.03712 8.39785 8.16273 8.23426 8.35818C8.07067 8.55364 7.98789 8.80418 8.00283 9.05862C8.01776 9.31306 8.1293 9.5522 8.31463 9.72717C8.49997 9.90214 8.74512 9.99973 9 10L9.127 9.99301C9.3801 9.96291 9.61214 9.8373 9.77573 9.64185C9.93933 9.44639 10.0221 9.19585 10.0072 8.94141C9.99223 8.68697 9.8807 8.44783 9.69537 8.27286C9.51003 8.09789 9.26488 8.0003 9.01 8.00001ZM15.01 8.00001L14.883 8.00701C14.6299 8.03712 14.3979 8.16273 14.2343 8.35818C14.0707 8.55364 13.9879 8.80418 14.0028 9.05862C14.0178 9.31306 14.1293 9.5522 14.3146 9.72717C14.5 9.90214 14.7451 9.99973 15 10L15.127 9.99301C15.3801 9.96291 15.6121 9.8373 15.7757 9.64185C15.9393 9.44639 16.0221 9.19585 16.0072 8.94141C15.9922 8.68697 15.8807 8.44783 15.6954 8.27286C15.51 8.09789 15.2649 8.0003 15.01 8.00001Z" fill="#E1F1FF"/>
</svg>
