<svg width="24" height="24" viewBox="0 0 24 24" fill="none" xmlns="http://www.w3.org/2000/svg">
<path d="M17 3.34001C18.5083 4.21087 19.7629 5.46054 20.6398 6.96531C21.5167 8.47009 21.9854 10.1778 21.9994 11.9194C22.0135 13.6609 21.5725 15.376 20.72 16.8947C19.8676 18.4135 18.6332 19.6832 17.1392 20.5783C15.6452 21.4734 13.9434 21.9628 12.2021 21.9981C10.4608 22.0333 8.74055 21.6132 7.21155 20.7793C5.68256 19.9453 4.39787 18.7265 3.48467 17.2435C2.57146 15.7605 2.06141 14.0647 2.005 12.324L2 12L2.005 11.676C2.061 9.94901 2.56355 8.26598 3.46364 6.79101C4.36373 5.31604 5.63065 4.09947 7.14089 3.2599C8.65113 2.42033 10.3531 1.98641 12.081 2.00045C13.8089 2.01449 15.5036 2.47601 17 3.34001ZM15.2 14.286C15.0106 14.1004 14.7553 13.9976 14.4901 14.0002C14.2249 14.0028 13.9717 14.1107 13.786 14.3C13.5532 14.5377 13.2753 14.7265 12.9687 14.8554C12.662 14.9843 12.3327 15.0507 12 15.0507C11.6673 15.0507 11.338 14.9843 11.0313 14.8554C10.7246 14.7265 10.4468 14.5377 10.214 14.3C10.0274 14.115 9.7755 14.0109 9.51276 14.0102C9.25002 14.0095 8.99754 14.1122 8.80993 14.2961C8.62231 14.4801 8.51462 14.7305 8.51014 14.9932C8.50567 15.2559 8.60476 15.5098 8.786 15.7C9.20498 16.1276 9.70505 16.4672 10.2569 16.6991C10.8088 16.9309 11.4014 17.0504 12 17.0504C12.5986 17.0504 13.1912 16.9309 13.7431 16.6991C14.295 16.4672 14.795 16.1276 15.214 15.7C15.3996 15.5106 15.5024 15.2553 15.4998 14.9901C15.4972 14.7249 15.3893 14.4717 15.2 14.286ZM9.01 9.00001L8.883 9.00701C8.6299 9.03712 8.39785 9.16273 8.23426 9.35818C8.07067 9.55364 7.98789 9.80418 8.00283 10.0586C8.01776 10.3131 8.12929 10.5522 8.31463 10.7272C8.49997 10.9021 8.74512 10.9997 9 11L9.127 10.993C9.38009 10.9629 9.61214 10.8373 9.77573 10.6418C9.93932 10.4464 10.0221 10.1959 10.0072 9.94141C9.99223 9.68697 9.8807 9.44783 9.69537 9.27286C9.51003 9.09789 9.26488 9.0003 9.01 9.00001ZM15.01 9.00001L14.883 9.00701C14.6299 9.03712 14.3979 9.16273 14.2343 9.35818C14.0707 9.55364 13.9879 9.80418 14.0028 10.0586C14.0178 10.3131 14.1293 10.5522 14.3146 10.7272C14.5 10.9021 14.7451 10.9997 15 11L15.127 10.993C15.3801 10.9629 15.6121 10.8373 15.7757 10.6418C15.9393 10.4464 16.0221 10.1959 16.0072 9.94141C15.9922 9.68697 15.8807 9.44783 15.6954 9.27286C15.51 9.09789 15.2649 9.0003 15.01 9.00001Z" fill="#2E2E7D"/>
</svg>
