<svg width="28" height="28" viewBox="0 0 28 28" fill="none" xmlns="http://www.w3.org/2000/svg">
<path d="M0.875 25.7188C0.875 26.0917 1.02316 26.4494 1.28688 26.7131C1.5506 26.9768 1.90829 27.125 2.28125 27.125H25.7188C26.0917 27.125 26.4494 26.9768 26.7131 26.7131C26.9768 26.4494 27.125 26.0917 27.125 25.7188V9.3125H0.875V25.7188ZM19.625 11.4219C19.625 11.3597 19.6497 11.3001 19.6936 11.2561C19.7376 11.2122 19.7972 11.1875 19.8594 11.1875H22.2031C22.2653 11.1875 22.3249 11.2122 22.3689 11.2561C22.4128 11.3001 22.4375 11.3597 22.4375 11.4219V13.7656C22.4375 13.8278 22.4128 13.8874 22.3689 13.9314C22.3249 13.9753 22.2653 14 22.2031 14H19.8594C19.7972 14 19.7376 13.9753 19.6936 13.9314C19.6497 13.8874 19.625 13.8278 19.625 13.7656V11.4219ZM19.625 16.1094C19.625 16.0472 19.6497 15.9876 19.6936 15.9436C19.7376 15.8997 19.7972 15.875 19.8594 15.875H22.2031C22.2653 15.875 22.3249 15.8997 22.3689 15.9436C22.4128 15.9876 22.4375 16.0472 22.4375 16.1094V18.4531C22.4375 18.5153 22.4128 18.5749 22.3689 18.6189C22.3249 18.6628 22.2653 18.6875 22.2031 18.6875H19.8594C19.7972 18.6875 19.7376 18.6628 19.6936 18.6189C19.6497 18.5749 19.625 18.5153 19.625 18.4531V16.1094ZM14.9375 11.4219C14.9375 11.3597 14.9622 11.3001 15.0061 11.2561C15.0501 11.2122 15.1097 11.1875 15.1719 11.1875H17.5156C17.5778 11.1875 17.6374 11.2122 17.6814 11.2561C17.7253 11.3001 17.75 11.3597 17.75 11.4219V13.7656C17.75 13.8278 17.7253 13.8874 17.6814 13.9314C17.6374 13.9753 17.5778 14 17.5156 14H15.1719C15.1097 14 15.0501 13.9753 15.0061 13.9314C14.9622 13.8874 14.9375 13.8278 14.9375 13.7656V11.4219ZM14.9375 16.1094C14.9375 16.0472 14.9622 15.9876 15.0061 15.9436C15.0501 15.8997 15.1097 15.875 15.1719 15.875H17.5156C17.5778 15.875 17.6374 15.8997 17.6814 15.9436C17.7253 15.9876 17.75 16.0472 17.75 16.1094V18.4531C17.75 18.5153 17.7253 18.5749 17.6814 18.6189C17.6374 18.6628 17.5778 18.6875 17.5156 18.6875H15.1719C15.1097 18.6875 15.0501 18.6628 15.0061 18.6189C14.9622 18.5749 14.9375 18.5153 14.9375 18.4531V16.1094ZM14.9375 20.7969C14.9375 20.7347 14.9622 20.6751 15.0061 20.6311C15.0501 20.5872 15.1097 20.5625 15.1719 20.5625H17.5156C17.5778 20.5625 17.6374 20.5872 17.6814 20.6311C17.7253 20.6751 17.75 20.7347 17.75 20.7969V23.1406C17.75 23.2028 17.7253 23.2624 17.6814 23.3064C17.6374 23.3503 17.5778 23.375 17.5156 23.375H15.1719C15.1097 23.375 15.0501 23.3503 15.0061 23.3064C14.9622 23.2624 14.9375 23.2028 14.9375 23.1406V20.7969ZM10.25 16.1094C10.25 16.0472 10.2747 15.9876 10.3186 15.9436C10.3626 15.8997 10.4222 15.875 10.4844 15.875H12.8281C12.8903 15.875 12.9499 15.8997 12.9939 15.9436C13.0378 15.9876 13.0625 16.0472 13.0625 16.1094V18.4531C13.0625 18.5153 13.0378 18.5749 12.9939 18.6189C12.9499 18.6628 12.8903 18.6875 12.8281 18.6875H10.4844C10.4222 18.6875 10.3626 18.6628 10.3186 18.6189C10.2747 18.5749 10.25 18.5153 10.25 18.4531V16.1094ZM10.25 20.7969C10.25 20.7347 10.2747 20.6751 10.3186 20.6311C10.3626 20.5872 10.4222 20.5625 10.4844 20.5625H12.8281C12.8903 20.5625 12.9499 20.5872 12.9939 20.6311C13.0378 20.6751 13.0625 20.7347 13.0625 20.7969V23.1406C13.0625 23.2028 13.0378 23.2624 12.9939 23.3064C12.9499 23.3503 12.8903 23.375 12.8281 23.375H10.4844C10.4222 23.375 10.3626 23.3503 10.3186 23.3064C10.2747 23.2624 10.25 23.2028 10.25 23.1406V20.7969ZM5.5625 16.1094C5.5625 16.0472 5.58719 15.9876 5.63115 15.9436C5.6751 15.8997 5.73471 15.875 5.79688 15.875H8.14062C8.20279 15.875 8.2624 15.8997 8.30635 15.9436C8.35031 15.9876 8.375 16.0472 8.375 16.1094V18.4531C8.375 18.5153 8.35031 18.5749 8.30635 18.6189C8.2624 18.6628 8.20279 18.6875 8.14062 18.6875H5.79688C5.73471 18.6875 5.6751 18.6628 5.63115 18.6189C5.58719 18.5749 5.5625 18.5153 5.5625 18.4531V16.1094ZM5.5625 20.7969C5.5625 20.7347 5.58719 20.6751 5.63115 20.6311C5.6751 20.5872 5.73471 20.5625 5.79688 20.5625H8.14062C8.20279 20.5625 8.2624 20.5872 8.30635 20.6311C8.35031 20.6751 8.375 20.7347 8.375 20.7969V23.1406C8.375 23.2028 8.35031 23.2624 8.30635 23.3064C8.2624 23.3503 8.20279 23.375 8.14062 23.375H5.79688C5.73471 23.375 5.6751 23.3503 5.63115 23.3064C5.58719 23.2624 5.5625 23.2028 5.5625 23.1406V20.7969ZM25.7188 2.75H22.4422V0.875H19.6297V2.75H8.37031V0.875H5.55781V2.75H2.28125C2.09728 2.74845 1.91483 2.78332 1.74439 2.8526C1.57396 2.92188 1.41892 3.0242 1.28821 3.15366C1.15749 3.28313 1.05369 3.43717 0.982769 3.60693C0.911852 3.77669 0.875225 3.9588 0.875 4.14277V7.4375H27.125V4.14277C27.1248 3.9588 27.0881 3.77669 27.0172 3.60693C26.9463 3.43717 26.8425 3.28313 26.7118 3.15366C26.5811 3.0242 26.426 2.92188 26.2556 2.8526C26.0852 2.78332 25.9027 2.74845 25.7188 2.75Z" fill="#2E2E7D"/>
</svg>
