<svg width="33" height="33" viewBox="0 0 33 33" fill="none" xmlns="http://www.w3.org/2000/svg">
<g filter="url(#filter0_d_0_158)">
<path d="M16.5 0C23.4038 0 29 5.59625 29 12.5C29 19.4037 23.4038 25 16.5 25C14.4778 25.0027 12.4854 24.5127 10.695 23.5725L5.33251 24.9688C5.15333 25.0154 4.96507 25.0145 4.78637 24.9659C4.60768 24.9174 4.44477 24.8231 4.31378 24.6922C4.18279 24.5613 4.08827 24.3985 4.03959 24.2199C3.99092 24.0412 3.98977 23.853 4.03626 23.6737L5.43126 18.3125C4.48851 16.5203 3.99723 14.5251 4.00001 12.5C4.00001 5.59625 9.59626 0 16.5 0ZM18.065 13.75H12.4375L12.31 13.7587C12.0856 13.7896 11.88 13.9007 11.7312 14.0714C11.5823 14.2422 11.5003 14.461 11.5003 14.6875C11.5003 14.914 11.5823 15.1328 11.7312 15.3036C11.88 15.4743 12.0856 15.5854 12.31 15.6163L12.4375 15.625H18.065L18.1913 15.6163C18.4157 15.5854 18.6213 15.4743 18.7701 15.3036C18.919 15.1328 19.001 14.914 19.001 14.6875C19.001 14.461 18.919 14.2422 18.7701 14.0714C18.6213 13.9007 18.4157 13.7896 18.1913 13.7587L18.065 13.75ZM20.5625 9.375H12.4375L12.31 9.38375C12.0856 9.41462 11.88 9.52569 11.7312 9.69642C11.5823 9.86715 11.5003 10.086 11.5003 10.3125C11.5003 10.539 11.5823 10.7578 11.7312 10.9286C11.88 11.0993 12.0856 11.2104 12.31 11.2413L12.4375 11.25H20.5625L20.69 11.2413C20.9144 11.2104 21.12 11.0993 21.2689 10.9286C21.4177 10.7578 21.4997 10.539 21.4997 10.3125C21.4997 10.086 21.4177 9.86715 21.2689 9.69642C21.12 9.52569 20.9144 9.41462 20.69 9.38375L20.5625 9.375Z" fill="#2E2E7D"/>
</g>
<defs>
<filter id="filter0_d_0_158" x="0" y="0" width="33" height="33.0031" filterUnits="userSpaceOnUse" color-interpolation-filters="sRGB">
<feFlood flood-opacity="0" result="BackgroundImageFix"/>
<feColorMatrix in="SourceAlpha" type="matrix" values="0 0 0 0 0 0 0 0 0 0 0 0 0 0 0 0 0 0 127 0" result="hardAlpha"/>
<feOffset dy="4"/>
<feGaussianBlur stdDeviation="2"/>
<feComposite in2="hardAlpha" operator="out"/>
<feColorMatrix type="matrix" values="0 0 0 0 0 0 0 0 0 0 0 0 0 0 0 0 0 0 0.25 0"/>
<feBlend mode="normal" in2="BackgroundImageFix" result="effect1_dropShadow_0_158"/>
<feBlend mode="normal" in="SourceGraphic" in2="effect1_dropShadow_0_158" result="shape"/>
</filter>
</defs>
</svg>
