<svg width="28" height="28" viewBox="0 0 28 28" fill="none" xmlns="http://www.w3.org/2000/svg">
<path d="M4.625 4.625C4.625 3.63044 5.02009 2.67661 5.72335 1.97335C6.42661 1.27009 7.38044 0.875 8.375 0.875C9.36956 0.875 10.3234 1.27009 11.0267 1.97335C11.7299 2.67661 12.125 3.63044 12.125 4.625C12.125 5.61956 11.7299 6.57339 11.0267 7.27665C10.3234 7.97991 9.36956 8.375 8.375 8.375C7.38044 8.375 6.42661 7.97991 5.72335 7.27665C5.02009 6.57339 4.625 5.61956 4.625 4.625ZM17.3356 7.595L17.4144 7.655C18.2099 8.2447 19.2064 8.49578 20.1864 8.35346C21.1664 8.21113 22.0503 7.68695 22.6453 6.89532C23.2402 6.10368 23.4979 5.10885 23.362 4.12794C23.2262 3.14703 22.7078 2.25967 21.9201 1.65952C21.1324 1.05937 20.1393 0.795156 19.1575 0.924532C18.1758 1.05391 17.285 1.56637 16.6797 2.35009C16.0743 3.13381 15.8036 4.12515 15.9265 5.10777C16.0493 6.09039 16.5559 6.98451 17.3356 7.595ZM10.7525 10.25C10.988 9.80406 11.311 9.4102 11.7023 9.09198C12.0935 8.77377 12.5449 8.53773 13.0295 8.398C13.514 8.25827 14.0218 8.21772 14.5224 8.27876C15.023 8.3398 15.5062 8.50119 15.9429 8.75327C16.3797 9.00535 16.7612 9.34294 17.0645 9.74585C17.3678 10.1488 17.5867 10.6087 17.7082 11.0982C17.8296 11.5876 17.8511 12.0966 17.7713 12.5945C17.6915 13.0925 17.5121 13.5692 17.2437 13.9963C16.7276 14.8177 15.9131 15.4072 14.9715 15.6408C14.0299 15.8745 13.0343 15.7341 12.1941 15.2491C11.3538 14.7642 10.7341 13.9724 10.4653 13.0402C10.1965 12.108 10.2994 11.1079 10.7525 10.25ZM3.6875 10.25H8.69375C8.36051 11.2017 8.28806 12.2252 8.4839 13.2143C8.67975 14.2034 9.13676 15.1221 9.8075 15.875H9.3125C8.34582 15.8749 7.40272 16.1735 6.61228 16.73C5.82185 17.2865 5.22271 18.0736 4.89687 18.9837C4.2675 18.7309 3.67822 18.388 3.1475 17.9656C1.7375 16.8312 0.875 15.155 0.875 13.0625C0.875 12.3166 1.17132 11.6012 1.69876 11.0738C2.22621 10.5463 2.94158 10.25 3.6875 10.25ZM18.6875 15.875C20.7219 15.875 22.4544 17.1706 23.1031 18.9837C23.7406 18.7231 24.3294 18.3837 24.8525 17.9656C26.2625 16.8312 27.125 15.155 27.125 13.0625C27.125 12.3166 26.8287 11.6012 26.3012 11.0738C25.7738 10.5463 25.0584 10.25 24.3125 10.25H19.3062C19.5125 10.8369 19.625 11.4688 19.625 12.125C19.6267 13.509 19.1165 14.8447 18.1925 15.875H18.6875ZM21.2881 19.49C21.425 19.82 21.5 20.1838 21.5 20.5625C21.5 22.655 20.6394 24.3312 19.2275 25.4656C17.8381 26.5812 15.9744 27.125 14 27.125C12.0256 27.125 10.1619 26.5812 8.7725 25.4656C7.3625 24.3312 6.5 22.655 6.5 20.5625C6.49901 20.1929 6.57108 19.8267 6.71207 19.485C6.85306 19.1434 7.06019 18.8329 7.32156 18.5716C7.58292 18.3102 7.89336 18.1031 8.23503 17.9621C8.57671 17.8211 8.94288 17.749 9.3125 17.75H18.6875C19.2446 17.7499 19.7891 17.9152 20.2521 18.225C20.7151 18.5347 21.0757 18.975 21.2881 19.49Z" fill="#2E2E7D"/>
</svg>
