<svg width="18" height="10" viewBox="0 0 18 10" fill="none" xmlns="http://www.w3.org/2000/svg">
<path d="M17.0346 0.640833C16.7974 0.409383 16.4779 0.281642 16.1465 0.285702C15.815 0.289761 15.4988 0.425289 15.2673 0.662481L9.15602 6.9253L2.8932 0.814046C2.65468 0.589253 2.33741 0.467137 2.00972 0.473998C1.68204 0.48086 1.37015 0.616151 1.14125 0.850732C0.912345 1.08531 0.784735 1.40042 0.785901 1.72817C0.787068 2.05593 0.916917 2.37011 1.14749 2.60306L8.30481 9.58717C8.54207 9.81862 8.86155 9.94637 9.19298 9.94231C9.52441 9.93825 9.84066 9.80272 10.0722 9.56553L17.0563 2.4082C17.2877 2.17094 17.4155 1.85146 17.4114 1.52003C17.4074 1.1886 17.2718 0.872355 17.0346 0.640833Z" fill="#2E2E7D"/>
</svg>
