<svg width="18" height="10" viewBox="0 0 18 10" fill="none" xmlns="http://www.w3.org/2000/svg">
<path d="M1.17119 9.51604C1.40591 9.75007 1.72397 9.88129 2.05542 9.88085C2.38688 9.88042 2.70459 9.74835 2.93869 9.5137L9.11801 3.31804L15.3137 9.49736C15.5497 9.72475 15.8657 9.85032 16.1934 9.84704C16.5211 9.84376 16.8345 9.71189 17.0659 9.47982C17.2974 9.24775 17.4284 8.93406 17.4308 8.60632C17.4333 8.27857 17.3069 7.96298 17.0788 7.72753L9.99826 0.665624C9.76354 0.431595 9.44548 0.300371 9.11403 0.300808C8.78257 0.301246 8.46486 0.43331 8.23076 0.667958L1.16886 7.74854C0.934829 7.98326 0.803605 8.30132 0.804042 8.63277C0.80448 8.96423 0.936544 9.28194 1.17119 9.51604Z" fill="#2E2E7D"/>
</svg>
