<svg width="63" height="62" viewBox="0 0 63 62" fill="none" xmlns="http://www.w3.org/2000/svg">
<g clip-path="url(#clip0_212_37)">
<path d="M34.65 27.9V15.5H28.35V27.9H15.75V34.1H28.35V46.5H34.65V34.1H47.25V27.9H34.65ZM31.5 62C23.1457 62 15.1335 58.7339 9.22614 52.9203C3.31874 47.1067 0 39.2217 0 31C0 22.7783 3.31874 14.8933 9.22614 9.07969C15.1335 3.26606 23.1457 0 31.5 0C39.8543 0 47.8665 3.26606 53.7739 9.07969C59.6813 14.8933 63 22.7783 63 31C63 39.2217 59.6813 47.1067 53.7739 52.9203C47.8665 58.7339 39.8543 62 31.5 62Z" fill="#FFFDE3"/>
</g>
<defs>
<clipPath id="clip0_212_37">
<rect width="63" height="62" fill="white"/>
</clipPath>
</defs>
</svg>
