<svg width="30" height="30" viewBox="0 0 30 30" fill="none" xmlns="http://www.w3.org/2000/svg">
<path d="M8.74749 12.8087L9.29124 13.7587C9.63749 14.365 9.80999 14.6675 9.80999 15C9.80999 15.3325 9.63749 15.635 9.29124 16.24L8.74749 17.1912C7.19999 19.9 6.42624 21.2537 7.02874 21.9262C7.63249 22.5975 9.06249 21.9725 11.92 20.7225L19.765 17.29C22.0087 16.3087 23.1312 15.8175 23.1312 15C23.1312 14.1825 22.0087 13.6912 19.765 12.71L11.92 9.27749C9.06249 8.02749 7.63249 7.40249 7.02874 8.07374C6.42624 8.74499 7.19999 10.0987 8.74749 12.8087Z" stroke="#2E2E7D" stroke-width="2"/>
</svg>
