<svg width="38" height="38" viewBox="0 0 37 37" fill="none" xmlns="http://www.w3.org/2000/svg">
<path d="M13 14.8333H13.0183M24 14.8333H24.0183M13 24H24M2 18.5C2 20.6668 2.42678 22.8124 3.25599 24.8143C4.08519 26.8161 5.30057 28.6351 6.83274 30.1673C8.3649 31.6994 10.1839 32.9148 12.1857 33.744C14.1876 34.5732 16.3332 35 18.5 35C20.6668 35 22.8124 34.5732 24.8143 33.744C26.8161 32.9148 28.6351 31.6994 30.1673 30.1673C31.6994 28.6351 32.9148 26.8161 33.744 24.8143C34.5732 22.8124 35 20.6668 35 18.5C35 16.3332 34.5732 14.1876 33.744 12.1857C32.9148 10.1839 31.6994 8.36491 30.1673 6.83274C28.6351 5.30057 26.8161 4.08519 24.8143 3.25599C22.8124 2.42679 20.6668 2 18.5 2C16.3332 2 14.1876 2.42679 12.1857 3.25599C10.1839 4.08519 8.3649 5.30057 6.83274 6.83274C5.30057 8.36491 4.08519 10.1839 3.25599 12.1857C2.42678 14.1876 2 16.3332 2 18.5Z" stroke="#6DC1F5" stroke-width="3.5" stroke-linecap="round" stroke-linejoin="round"/>
</svg>
