<svg width="38" height="38" viewBox="0 0 41 41" fill="none" xmlns="http://www.w3.org/2000/svg">
<path d="M20.5001 3.41667C11.0803 3.41667 3.41675 11.0803 3.41675 20.5C3.41675 29.9198 11.0803 37.5833 20.5001 37.5833C29.9198 37.5833 37.5834 29.9198 37.5834 20.5C37.5834 11.0803 29.9198 3.41667 20.5001 3.41667ZM20.5001 34.1667C12.9646 34.1667 6.83341 28.0355 6.83341 20.5C6.83341 12.9645 12.9646 6.83334 20.5001 6.83334C28.0355 6.83334 34.1667 12.9645 34.1667 20.5C34.1667 28.0355 28.0355 34.1667 20.5001 34.1667Z" fill="#6DC1F5"/>
<path d="M14.5208 20.5C15.936 20.5 17.0833 19.3527 17.0833 17.9375C17.0833 16.5223 15.936 15.375 14.5208 15.375C13.1055 15.375 11.9583 16.5223 11.9583 17.9375C11.9583 19.3527 13.1055 20.5 14.5208 20.5Z" fill="#6DC1F5"/>
<path d="M26.4673 20.4761C27.8759 20.4761 29.0178 19.3342 29.0178 17.9255C29.0178 16.5169 27.8759 15.375 26.4673 15.375C25.0587 15.375 23.9167 16.5169 23.9167 17.9255C23.9167 19.3342 25.0587 20.4761 26.4673 20.4761Z" fill="#6DC1F5"/>
<path d="M20.4999 30.75C27.3333 30.75 29.0416 23.9167 29.0416 23.9167H11.9583C11.9583 23.9167 13.6666 30.75 20.4999 30.75Z" fill="#6DC1F5"/>
</svg>
