<svg width="42" height="42" viewBox="0 0 42 42" fill="none" xmlns="http://www.w3.org/2000/svg">
<path d="M21 3.5C11.3505 3.5 3.5 11.3505 3.5 21C3.5 30.6495 11.3505 38.5 21 38.5C30.6495 38.5 38.5 30.6495 38.5 21C38.5 11.3505 30.6495 3.5 21 3.5ZM21 35C13.2808 35 7 28.7192 7 21C7 13.2807 13.2808 7 21 7C28.7192 7 35 13.2807 35 21C35 28.7192 28.7192 35 21 35Z" fill="#6DC1F5"/>
<path d="M14.875 21C16.3247 21 17.5 19.8247 17.5 18.375C17.5 16.9253 16.3247 15.75 14.875 15.75C13.4253 15.75 12.25 16.9253 12.25 18.375C12.25 19.8247 13.4253 21 14.875 21Z" fill="#6DC1F5"/>
<path d="M27.1128 20.9755C28.5557 20.9755 29.7255 19.8057 29.7255 18.3628C29.7255 16.9198 28.5557 15.75 27.1128 15.75C25.6698 15.75 24.5 16.9198 24.5 18.3628C24.5 19.8057 25.6698 20.9755 27.1128 20.9755Z" fill="#6DC1F5"/>
<path d="M21 24.5C15.75 24.5 14 29.75 14 29.75H28C28 29.75 26.25 24.5 21 24.5Z" fill="#6DC1F5"/>
</svg>
