<svg width="38" height="38" viewBox="0 0 38 38" fill="none" xmlns="http://www.w3.org/2000/svg">
<path d="M18.9999 4.74999C17.1286 4.74999 15.2756 5.11858 13.5467 5.83471C11.8178 6.55084 10.2469 7.60049 8.92365 8.92372C7.60041 10.247 6.55076 11.8179 5.83463 13.5468C5.11851 15.2756 4.74992 17.1287 4.74992 19C4.74992 20.8713 5.11851 22.7243 5.83463 24.4532C6.55076 26.1821 7.60041 27.753 8.92365 29.0763C10.2469 30.3995 11.8178 31.4491 13.5467 32.1653C15.2756 32.8814 17.1286 33.25 18.9999 33.25C22.7793 33.25 26.4038 31.7487 29.0762 29.0763C31.7486 26.4039 33.2499 22.7793 33.2499 19C33.2499 15.2207 31.7486 11.5961 29.0762 8.92372C26.4038 6.25133 22.7793 4.74999 18.9999 4.74999ZM1.58325 19C1.58325 9.38124 9.38117 1.58333 18.9999 1.58333C28.6187 1.58333 36.4166 9.38124 36.4166 19C36.4166 28.6187 28.6187 36.4167 18.9999 36.4167C9.38117 36.4167 1.58325 28.6187 1.58325 19ZM10.7175 12.8788L16.2022 16.0455L14.6188 18.7878L9.13417 15.6212L10.7175 12.8788ZM28.8688 15.6212L23.3842 18.7878L21.8008 16.0455L27.2855 12.8788L28.8688 15.6212ZM12.1441 24.5401C12.8389 23.3367 13.8382 22.3375 15.0417 21.6429C16.2452 20.9483 17.6104 20.5829 18.9999 20.5833C20.3896 20.583 21.7549 20.9487 22.9584 21.6436C24.1619 22.3384 25.1612 23.338 25.8558 24.5417L26.649 25.9112L23.9083 27.4962L23.1166 26.1266C22.7002 25.4032 22.1004 24.8025 21.3775 24.3852C20.6547 23.9679 19.8345 23.7488 18.9999 23.75C18.1656 23.7495 17.3459 23.9687 16.6232 24.3856C15.9005 24.8025 15.3004 25.4025 14.8833 26.125L14.0916 27.4962L11.3508 25.9112L12.1441 24.5401Z" fill="#6DC1F5"/>
</svg>
