<svg width="52" height="47" viewBox="0 0 52 47" fill="none" xmlns="http://www.w3.org/2000/svg">
<path d="M8.125 20.5625C7.69402 20.5625 7.2807 20.4078 6.97595 20.1323C6.67121 19.8569 6.5 19.4833 6.5 19.0937V7.34668C6.5 6.95714 6.67121 6.58356 6.97595 6.30812C7.2807 6.03267 7.69402 5.87793 8.125 5.87793H21.125C21.556 5.87793 21.9693 6.03267 22.274 6.30812C22.5788 6.58356 22.75 6.95714 22.75 7.34668V19.0937C22.75 19.4833 22.5788 19.8569 22.274 20.1323C21.9693 20.4078 21.556 20.5625 21.125 20.5625H8.125ZM30.875 20.5625C30.444 20.5625 30.0307 20.4078 29.726 20.1323C29.4212 19.8569 29.25 19.4833 29.25 19.0937V7.34668C29.25 6.95714 29.4212 6.58356 29.726 6.30812C30.0307 6.03267 30.444 5.87793 30.875 5.87793H43.8717C44.3027 5.87793 44.7161 6.03267 45.0208 6.30812C45.3255 6.58356 45.4967 6.95714 45.4967 7.34668V19.0937C45.4967 19.4833 45.3255 19.8569 45.0208 20.1323C44.7161 20.4078 44.3027 20.5625 43.8717 20.5625H30.875ZM8.125 41.125C7.69402 41.125 7.2807 40.9703 6.97595 40.6948C6.67121 40.4194 6.5 40.0458 6.5 39.6562V27.9062C6.5 27.5167 6.67121 27.1431 6.97595 26.8677C7.2807 26.5922 7.69402 26.4375 8.125 26.4375H21.125C21.556 26.4375 21.9693 26.5922 22.274 26.8677C22.5788 27.1431 22.75 27.5167 22.75 27.9062V39.6562C22.75 40.0458 22.5788 40.4194 22.274 40.6948C21.9693 40.9703 21.556 41.125 21.125 41.125H8.125ZM30.875 41.125C30.444 41.125 30.0307 40.9703 29.726 40.6948C29.4212 40.4194 29.25 40.0458 29.25 39.6562V27.9062C29.25 27.5167 29.4212 27.1431 29.726 26.8677C30.0307 26.5922 30.444 26.4375 30.875 26.4375H43.8717C44.3027 26.4375 44.7161 26.5922 45.0208 26.8677C45.3255 27.1431 45.4967 27.5167 45.4967 27.9062V39.6562C45.4967 40.0458 45.3255 40.4194 45.0208 40.6948C44.7161 40.9703 44.3027 41.125 43.8717 41.125H30.875Z" fill="#FFFDE3"/>
</svg>
