<?xml version="1.0" standalone="no"?>
<!DOCTYPE svg PUBLIC "-//W3C//DTD SVG 20010904//EN"
 "http://www.w3.org/TR/2001/REC-SVG-20010904/DTD/svg10.dtd">
<svg version="1.0" xmlns="http://www.w3.org/2000/svg"
 width="477.000000pt" height="670.000000pt" viewBox="0 0 477.000000 670.000000"
 preserveAspectRatio="xMidYMid meet">

<g transform="translate(0.000000,670.000000) scale(0.100000,-0.100000)"
fill="#ffffff" stroke="#000000">
<path d="M2200 6570 c-20 -6 -21 -8 -5 -8 11 0 29 3 40 8 25 11 -1 11 -35 0z"/>
<path d="M2435 6559 c-27 -11 -54 -24 -58 -28 -5 -5 -31 0 -58 10 l-50 19
-142 -41 c-78 -22 -149 -45 -157 -51 -11 -7 -9 -8 9 -4 26 5 25 4 -35 -42 -23
-18 -47 -32 -52 -32 -6 0 -23 -17 -38 -37 -15 -21 -48 -59 -73 -85 -25 -27
-42 -48 -37 -48 10 0 -29 -56 -66 -95 -16 -16 -26 -35 -23 -43 2 -7 -11 -36
-30 -63 -19 -28 -41 -72 -49 -97 -7 -26 -26 -69 -41 -95 -23 -42 -26 -58 -23
-112 2 -35 0 -61 -4 -58 -5 2 -9 19 -9 36 -1 22 -4 14 -9 -23 -6 -40 -5 -61 6
-82 17 -33 20 -92 3 -68 -8 12 -10 10 -5 -9 3 -17 -7 -50 -33 -100 -31 -63
-37 -84 -33 -121 2 -25 5 -59 6 -76 0 -21 5 -30 14 -27 6 3 12 1 12 -5 0 -5
10 -22 22 -37 12 -15 23 -46 26 -67 2 -22 12 -57 23 -78 l20 -38 -33 -54 c-50
-79 -59 -104 -52 -151 7 -53 45 -136 73 -161 12 -11 42 -33 68 -50 33 -22 50
-42 60 -69 14 -43 8 -63 -31 -105 -20 -22 -20 -23 -1 -17 14 5 11 -1 -11 -22
-34 -30 -101 -124 -87 -122 35 6 40 -2 37 -48 l-4 -48 19 53 c22 62 48 92 108
128 28 16 43 31 41 42 -1 9 5 28 14 42 18 27 26 123 13 154 -7 16 -5 18 13 14
19 -5 19 -3 -8 31 -16 20 -46 49 -66 65 -65 51 -73 101 -30 184 17 34 31 40
39 20 3 -7 6 -3 6 9 1 33 18 37 29 6 l10 -28 7 33 c9 40 27 29 30 -20 4 -48 4
-50 13 -44 5 3 6 -15 2 -39 -4 -24 -3 -42 2 -39 4 3 9 17 9 32 2 25 2 25 6 4
3 -13 2 -31 -2 -40 -3 -9 -6 -19 -6 -22 0 -3 -8 -14 -17 -24 -16 -18 -16 -19
0 -10 56 30 88 133 53 168 -10 9 -13 24 -10 38 3 13 1 36 -4 51 -6 15 -7 27
-3 27 4 0 20 -37 35 -81 38 -109 79 -170 172 -256 l78 -72 18 -95 c10 -51 21
-126 25 -166 l7 -72 -54 -55 c-109 -111 -327 -262 -437 -302 -181 -67 -289
-132 -339 -206 -66 -97 -88 -251 -74 -514 9 -161 8 -178 -10 -222 -10 -27 -21
-60 -23 -75 -3 -14 -40 -87 -83 -162 -97 -170 -104 -185 -106 -244 -1 -27 -4
-48 -7 -48 -13 0 -70 41 -70 50 0 5 -15 24 -33 42 -18 19 -51 66 -72 105 -21
40 -40 71 -42 70 -1 -2 11 -41 27 -87 16 -47 29 -96 29 -110 -1 -14 -19 30
-40 98 -22 67 -44 122 -49 122 -6 0 -10 -32 -10 -70 0 -70 0 -70 24 -64 22 5
25 2 31 -30 4 -20 5 -43 1 -51 -3 -9 -2 -13 4 -10 11 7 16 -15 24 -98 6 -55 5
-58 -20 -67 -14 -6 -27 -10 -28 -10 -2 0 -3 21 -3 48 1 26 -2 67 -5 92 -4 25
-7 53 -7 63 -1 9 -5 17 -9 17 -5 0 -9 -90 -8 -200 1 -109 -1 -193 -4 -185 -3
8 -6 -70 -6 -173 -1 -116 -5 -187 -12 -190 -5 -1 -8 -12 -5 -23 3 -11 -3 -80
-13 -154 -17 -129 -17 -138 0 -188 9 -28 30 -97 47 -152 16 -55 32 -106 34
-113 3 -7 1 -11 -4 -7 -5 3 -12 19 -16 35 -4 17 -13 30 -20 30 -20 0 -71 -64
-108 -133 -32 -61 -32 -63 -30 -193 3 -235 38 -368 121 -459 21 -22 59 -80 86
-128 53 -98 73 -113 142 -102 49 7 53 3 84 -88 l24 -67 53 0 52 0 4 108 3 107
2 -107 2 -108 195 0 196 0 -3 39 c-1 22 4 46 11 55 9 10 9 16 3 16 -7 0 -9 7
-5 17 4 11 3 14 -5 9 -14 -8 -15 37 -3 68 6 15 18 -5 54 -89 25 -61 51 -111
57 -113 7 -3 5 11 -5 34 -58 137 -96 237 -93 246 2 6 30 -55 62 -135 32 -81
62 -147 67 -147 8 0 1 22 -55 159 -14 35 -24 66 -22 68 1 2 25 -48 52 -112 32
-77 53 -115 64 -115 8 0 34 24 57 52 60 76 149 161 163 156 12 -4 -4 -29 -69
-110 l-35 -43 47 44 c26 25 48 43 50 40 2 -2 7 -17 11 -33 6 -26 5 -28 -9 -16
-26 22 -29 3 -4 -31 22 -31 13 -32 -22 -3 -13 12 -20 9 -49 -21 l-34 -35 110
0 110 0 0 388 c-1 297 3 432 17 582 10 107 20 202 24 210 3 8 9 168 13 355 8
299 12 358 34 484 14 80 26 147 25 150 0 3 -9 -25 -20 -64 -23 -80 -27 -86
-88 -127 -32 -23 -43 -27 -38 -14 4 10 3 15 -3 11 -5 -3 -22 2 -36 12 -20 13
-29 14 -32 5 -2 -8 -9 -9 -22 -2 -11 6 -25 9 -32 8 -7 -2 -14 4 -14 12 -3 32
-5 35 -12 22 -5 -7 -16 -10 -25 -6 -9 3 -14 10 -11 15 7 11 -7 11 -24 0 -10
-6 1 -21 40 -56 l53 -48 -43 23 c-42 24 -170 134 -226 195 -24 26 -23 23 6
-19 42 -62 111 -124 213 -192 79 -53 100 -76 27 -30 -20 13 -59 36 -86 51 -28
15 -70 46 -95 69 -25 23 -40 33 -32 24 36 -46 -45 12 -135 98 -36 34 -46 39
-55 27 -10 -11 -8 -12 6 -7 14 6 16 3 10 -14 -4 -13 -2 -22 4 -22 6 0 11 -7
11 -15 0 -8 5 -15 11 -15 7 0 4 -11 -6 -27 -18 -28 -18 -28 2 -10 39 34 32 0
-7 -38 -39 -38 -70 -43 -37 -7 26 29 20 38 -8 12 -30 -29 -46 -19 -19 12 19
23 19 23 -2 5 -27 -22 -48 -22 -39 1 8 20 8 21 6 45 -1 17 -3 17 -32 -4 l-32
-22 19 28 c18 28 18 28 -1 17 -11 -5 -31 -22 -44 -36 -37 -40 -74 -30 -51 14
9 17 8 20 -10 20 -40 0 -32 27 25 81 52 49 69 89 34 80 -8 -2 -20 -4 -26 -4
-7 0 -13 -4 -13 -9 0 -4 -5 -8 -10 -8 -6 0 -7 7 -1 17 4 10 30 63 57 118 27
55 52 102 57 103 4 2 7 10 7 18 0 8 19 44 43 79 39 60 45 64 82 66 l40 2 -40
7 c-22 4 -32 8 -22 9 10 0 15 6 12 11 -3 6 1 13 9 16 9 3 16 11 16 18 0 6 12
29 25 51 l26 40 -5 -35 -5 -35 10 35 c29 97 96 184 181 233 70 40 150 142 218
276 17 35 40 73 50 84 26 27 33 66 21 118 -19 79 -12 149 13 149 6 0 33 -22
60 -49 34 -34 44 -50 34 -55 -7 -3 -2 -3 12 0 29 7 163 79 159 85 -2 2 10 26
26 53 27 46 28 54 31 195 2 116 6 158 22 206 37 108 51 132 130 232 42 54 94
121 114 148 20 28 46 59 59 70 l22 20 -6 -30 c-3 -16 -13 -57 -22 -91 -24 -87
-7 -145 55 -192 58 -44 73 -74 73 -144 -1 -49 -8 -70 -54 -155 -29 -54 -57
-101 -63 -105 -5 -3 -11 -12 -12 -20 -1 -7 -32 -68 -69 -136 -53 -96 -76 -129
-109 -151 -91 -64 -146 -150 -185 -291 -21 -73 -39 -233 -38 -325 0 -27 -7
-74 -17 -103 -14 -42 -25 -57 -54 -73 -50 -27 -130 -78 -172 -110 -73 -55 -79
-47 -20 26 54 68 51 64 88 121 35 55 39 73 20 92 -46 46 -125 -58 -221 -290
-25 -60 -43 -108 -42 -108 7 0 140 112 143 121 2 5 10 9 18 9 8 0 14 4 14 8 0
5 10 14 23 21 35 19 58 33 125 79 l63 43 -7 -48 c-3 -26 -8 -51 -11 -55 -2 -5
2 -8 10 -8 16 0 42 84 32 101 -4 5 -2 9 3 9 6 0 8 9 5 20 -3 11 -1 20 5 20 6
0 8 10 4 22 -3 13 -1 19 5 15 6 -4 8 4 5 20 -4 19 -2 24 8 18 9 -5 10 -2 6 12
-4 11 3 68 14 128 12 59 19 114 16 121 -3 7 1 17 9 21 8 5 15 27 17 51 2 27 8
42 16 42 16 0 15 -6 -29 -188 -16 -68 -27 -128 -24 -132 3 -5 -4 -48 -15 -96
-21 -91 -22 -142 -1 -64 20 71 129 342 149 368 27 35 89 40 147 12 106 -51
113 -137 34 -425 -21 -77 -52 -194 -68 -260 -16 -66 -36 -139 -44 -162 -9 -22
-14 -43 -11 -45 2 -3 -13 -10 -35 -16 -27 -9 -54 -30 -93 -75 -60 -69 -69 -84
-74 -140 -4 -44 12 -81 50 -116 14 -14 26 -29 26 -35 0 -6 -25 -40 -55 -76
-68 -79 -139 -185 -165 -242 -60 -136 -99 -356 -105 -593 l-4 -160 33 225 c41
274 54 327 113 494 37 101 63 155 116 234 38 57 74 101 80 98 78 -32 147 -31
204 4 71 43 134 181 115 251 -8 32 -9 30 -9 -22 0 -129 -108 -218 -227 -188
-25 6 -53 20 -63 31 -18 20 -18 21 4 9 85 -44 210 50 219 165 l4 49 -16 -42
c-15 -42 -64 -93 -87 -93 -7 1 0 7 15 16 58 31 76 117 33 159 -27 28 -25 31 8
13 28 -15 49 -19 41 -7 -3 5 -8 7 -12 5 -4 -2 -20 6 -36 19 l-29 23 17 59 c10
32 21 69 26 83 5 14 31 111 59 216 28 106 68 245 90 310 21 66 55 173 75 239
20 66 41 130 46 143 19 45 12 135 -16 190 l-25 51 40 123 c38 119 63 232 77
351 4 36 12 61 21 64 7 3 25 25 39 50 33 54 28 98 -16 159 -16 23 -30 45 -30
49 0 3 -10 19 -22 36 -18 24 -23 44 -24 100 0 42 3 68 9 66 14 -4 18 -40 5
-48 -7 -5 -7 -12 1 -25 10 -18 10 -18 11 3 0 12 5 25 10 28 6 3 10 14 10 24 0
10 9 28 20 41 11 13 20 28 20 34 1 6 9 -10 20 -37 11 -30 36 -64 68 -92 68
-61 79 -96 52 -164 -21 -53 -27 -126 -11 -135 5 -3 12 10 15 29 4 19 18 59 32
90 14 31 29 81 33 111 7 52 6 58 -22 92 -71 89 -80 144 -37 229 17 35 44 73
60 85 23 18 31 35 38 83 5 33 7 65 5 73 -3 7 1 20 9 30 8 9 25 39 37 65 22 48
40 54 42 14 1 -19 2 -19 6 -3 3 10 -2 37 -10 60 -11 31 -17 141 -7 141 0 0 2
22 3 48 3 44 -1 53 -35 92 -21 24 -38 52 -38 62 0 10 -6 25 -12 31 -10 10 -10
17 0 32 7 12 8 20 2 20 -5 0 -10 9 -10 20 0 25 17 26 23 3 3 -10 5 14 5 54 -1
71 -2 73 -44 120 -24 26 -49 64 -56 83 -6 19 -22 57 -34 85 -13 27 -24 66 -24
85 0 20 -15 65 -34 105 -19 39 -37 83 -41 98 -7 33 -103 142 -156 177 -40 26
-52 44 -21 33 15 -6 15 -5 3 10 -7 9 -20 17 -27 17 -8 0 -14 5 -14 11 0 5 -19
19 -43 29 -23 11 -46 22 -50 26 -4 5 -13 9 -20 11 -7 1 -46 13 -87 25 -78 24
-206 31 -263 15 -49 -13 -20 11 31 27 32 10 39 15 22 15 -14 0 -47 -9 -75 -20z
m-145 -39 c18 -12 2 -12 -25 0 -13 6 -15 9 -5 9 8 0 22 -4 30 -9z m-133 -196
c-3 -3 -12 -4 -19 -1 -8 3 -5 6 6 6 11 1 17 -2 13 -5z m-30 -40 c-3 -3 -12 -4
-19 -1 -8 3 -5 6 6 6 11 1 17 -2 13 -5z m43 -24 c0 -18 -52 -33 -61 -18 -5 7
-3 16 4 20 18 11 57 10 57 -2z m578 -24 c28 -15 71 -56 57 -56 -4 0 0 -11 8
-24 14 -20 5 -18 -61 20 -42 23 -86 50 -97 58 -19 14 -18 15 23 16 24 0 55 -6
70 -14z m-612 -25 c-3 -5 4 -11 15 -14 12 -3 19 -11 17 -18 -4 -13 -90 -61
-96 -54 -3 2 6 19 19 37 13 18 25 36 25 41 3 15 4 17 15 17 5 0 8 -4 5 -9z
m609 -40 c33 -20 95 -77 95 -87 0 -4 -12 2 -27 11 -23 15 -22 11 10 -22 49
-52 47 -63 -4 -21 -23 18 -66 52 -97 76 -62 47 -59 54 8 17 43 -24 32 -10 -21
27 -34 24 -2 23 36 -1z m-595 -41 c-12 -8 -10 -10 9 -10 25 0 25 0 5 -19 -28
-26 -59 -41 -84 -41 -26 0 -18 15 24 42 17 11 22 17 11 14 -20 -6 -20 -6 -1 9
11 8 27 15 35 15 14 0 14 -1 1 -10z m613 -58 c15 -15 42 -51 60 -82 41 -70 44
-78 25 -62 -24 19 -31 -11 -13 -54 18 -44 7 -43 -25 2 -28 41 -37 31 -20 -22
17 -49 3 -55 -32 -14 l-29 35 7 -40 c7 -37 6 -39 -10 -26 -16 13 -17 12 -10
-15 l7 -29 -25 30 c-40 48 -108 144 -108 151 0 4 9 -1 20 -11 11 -10 20 -13
20 -7 0 6 -4 14 -10 17 -5 3 -15 15 -21 27 -9 18 -8 19 10 13 21 -7 26 4 21
48 -1 16 1 17 22 6 13 -6 32 -19 43 -28 11 -8 4 2 -15 23 -26 29 -30 37 -15
32 16 -6 18 -5 8 5 -19 19 -16 28 7 22 23 -6 26 6 8 27 -20 21 43 -19 75 -48z
m-583 -12 c0 -5 -6 -10 -12 -11 -7 -1 -2 -4 12 -8 24 -7 24 -8 -18 -30 -46
-24 -64 -22 -42 4 10 12 10 15 -4 15 -22 0 -11 19 18 30 29 12 46 12 46 0z
m249 -148 c105 -52 98 -44 175 -222 31 -69 42 -106 35 -111 -6 -4 -49 -17 -95
-29 -103 -27 -129 -46 -138 -102 -15 -88 -14 -93 22 -96 20 -2 32 -9 32 -18 0
-8 9 -14 20 -14 11 0 20 -4 20 -10 0 -5 5 -10 11 -10 6 0 17 -6 25 -14 8 -8
39 -20 70 -26 50 -11 63 -10 121 10 36 12 67 20 69 17 3 -2 23 -28 45 -58 34
-45 38 -58 33 -88 -12 -73 -37 -132 -70 -168 l-34 -36 -85 7 c-47 3 -85 3 -85
-1 0 -4 12 -17 28 -30 27 -22 27 -22 4 -23 -12 0 -35 -8 -49 -17 -21 -14 -45
-17 -111 -16 -53 2 -81 -1 -77 -7 8 -13 -25 -26 -34 -14 -6 9 -23 12 -134 20
-66 6 -68 7 -93 45 -22 35 -28 39 -65 39 -57 0 -96 26 -124 85 -31 62 -39 104
-31 149 7 37 18 43 111 65 28 7 61 20 75 29 23 15 24 17 5 20 -11 2 -24 9 -30
14 -7 7 9 9 48 6 31 -3 57 -2 57 2 0 4 -10 20 -22 36 l-22 29 33 -30 c26 -24
31 -34 25 -55 -4 -14 -9 -68 -10 -120 -1 -52 -5 -127 -9 -166 -10 -92 3 -108
84 -102 47 4 59 10 82 37 21 25 31 31 51 26 16 -4 29 -1 37 8 10 13 7 16 -21
23 -18 4 -51 7 -73 5 -31 -2 -45 3 -60 19 -18 20 -20 34 -16 175 3 146 2 156
-22 208 -27 59 -52 81 -141 123 -32 15 -60 34 -64 42 -7 20 10 102 38 175 22
58 119 177 145 177 6 0 22 9 35 20 35 31 76 24 179 -28z m200 -53 c13 -22 21
-42 19 -45 -5 -4 -68 80 -68 90 0 17 30 -10 49 -45z m68 -365 c-3 -3 -16 -4
-29 -2 l-23 5 25 10 c23 10 41 1 27 -13z m-1177 -27 c0 -2 -10 -12 -21 -23
-22 -19 -22 -19 -10 4 10 18 31 31 31 19z m1110 -77 c0 -5 -5 -10 -11 -10 -5
0 -7 5 -4 10 3 6 8 10 11 10 2 0 4 -4 4 -10z m780 -35 c20 -24 6 -28 -15 -5
-10 11 -13 20 -8 20 6 0 16 -7 23 -15z m-843 -13 c10 -17 8 -18 -12 -14 -15 2
-22 9 -18 18 7 19 16 18 30 -4z m-447 -12 c0 -5 -5 -10 -11 -10 -5 0 -7 5 -4
10 3 6 8 10 11 10 2 0 4 -4 4 -10z m1300 -42 c0 -5 -4 -8 -10 -8 -5 0 -10 10
-10 23 0 18 2 19 10 7 5 -8 10 -18 10 -22z m-10 -78 c7 -13 7 -20 1 -20 -6 0
-15 9 -21 20 -7 13 -7 20 -1 20 6 0 15 -9 21 -20z m-1909 -52 c11 -21 11 -22
-4 -9 -10 7 -17 17 -17 22 0 15 9 10 21 -13z m1916 -54 c3 -8 -1 -23 -10 -32
-15 -14 -17 -14 -23 1 -8 21 1 47 16 47 6 0 13 -7 17 -16z m-33 -69 c-4 -8 -8
-15 -10 -15 -2 0 -4 7 -4 15 0 8 4 15 10 15 5 0 7 -7 4 -15z m-337 -117 c-2
-7 -10 -12 -17 -10 -9 2 -11 -9 -5 -44 4 -32 3 -44 -4 -39 -6 3 -9 10 -6 15 3
5 1 11 -3 14 -12 7 -8 42 7 60 16 19 35 21 28 4z m-354 -47 c15 -1 92 -25 100
-31 14 -12 -15 -74 -60 -130 -59 -72 -154 -152 -223 -187 -110 -56 -266 -25
-307 62 -25 52 -8 65 81 65 118 0 141 11 234 107 93 95 142 134 157 122 6 -4
13 -8 18 -8z m-605 -64 c2 -12 -1 -15 -12 -11 -22 8 -30 36 -9 32 10 -2 19
-11 21 -21z m372 -26 c0 -17 -45 -38 -81 -38 -19 0 -40 -3 -46 -6 -14 -9 -63
9 -63 23 0 5 19 10 43 11 23 0 51 4 62 9 27 11 85 12 85 1z m557 -26 c-15 -16
-19 -13 -11 9 3 9 10 13 15 10 5 -3 3 -11 -4 -19z m-1489 -120 c-3 -3 -9 2
-12 12 -6 14 -5 15 5 6 7 -7 10 -15 7 -18z m1472 -320 c22 -27 51 -62 65 -78
36 -38 48 -77 36 -110 -6 -15 -14 -27 -19 -27 -13 0 -37 30 -61 77 -13 26 -43
58 -77 83 -84 63 -99 128 -42 181 l33 29 13 -52 c8 -31 30 -74 52 -103z
m-1280 82 c0 -2 -10 -12 -22 -23 l-23 -19 19 23 c18 21 26 27 26 19z m1100
-567 c-60 -137 -129 -250 -152 -250 -5 0 -1 15 10 33 11 17 43 77 72 132 108
206 141 246 70 85z m96 -62 c-41 -156 -64 -208 -90 -208 -35 0 -37 9 -11 49
26 39 85 179 107 251 25 85 21 6 -6 -92z m60 17 c-16 -78 -74 -230 -84 -221
-3 4 17 76 43 162 52 164 67 186 41 59z m-130 -25 c-33 -80 -67 -139 -100
-169 -37 -35 -32 -21 17 51 23 35 55 91 71 125 38 80 45 75 12 -7z m-498 15
c2 -15 11 -39 19 -52 14 -21 14 -27 -1 -66 -13 -34 -28 -50 -72 -77 l-56 -34
-34 40 c-52 61 -52 70 0 119 25 23 46 48 46 55 0 8 9 24 21 36 29 31 73 19 77
-21z m-418 -180 c-28 -70 -71 -168 -96 -219 -25 -50 -37 -82 -28 -71 9 11 14
13 11 5 -92 -238 -219 -509 -264 -560 -17 -19 -56 -82 -88 -140 -143 -260
-233 -372 -297 -370 -7 1 3 8 22 16 34 15 100 71 100 85 0 4 -19 10 -42 13
-24 4 -50 11 -58 17 -11 8 -7 9 15 4 17 -4 47 -9 68 -10 31 -3 37 0 35 13 -2
10 3 16 11 14 8 -2 11 3 8 12 -4 9 2 21 11 28 9 7 18 20 20 28 1 8 -11 0 -27
-18 l-29 -34 -32 29 c-40 35 -56 62 -35 59 8 -1 18 -6 22 -11 5 -4 1 -5 -7 0
-8 5 -12 5 -8 1 12 -14 21 -11 24 6 1 9 -7 24 -17 34 -36 33 -19 88 27 89 20
0 31 7 40 25 6 14 25 54 42 90 17 36 44 97 59 135 27 66 54 109 239 380 41 61
120 187 176 280 154 259 183 279 98 70z m910 -164 c24 -18 25 -22 21 -107 -2
-49 -12 -116 -22 -148 -11 -33 -22 -77 -25 -98 -9 -55 -21 -55 -27 -2 -6 53
-29 89 -78 122 -28 20 -44 23 -91 20 -41 -3 -53 -1 -43 6 7 6 30 52 51 101 20
50 47 98 58 107 39 31 111 31 156 -1z m110 -53 c0 -37 -28 -149 -41 -162 -18
-19 -18 1 1 74 11 41 20 88 20 103 0 16 4 26 10 22 6 -3 10 -20 10 -37z
m-1397 -97 c-43 -82 -63 -107 -63 -82 0 14 102 182 107 177 3 -2 -17 -45 -44
-95z m1026 23 c-22 -43 -38 -83 -35 -90 3 -8 0 -14 -6 -14 -21 0 1 73 38 127
20 29 38 53 39 53 2 0 -15 -34 -36 -76z m-89 11 c-7 -25 -17 -45 -22 -45 -10
0 -6 29 12 76 17 43 24 19 10 -31z m-17 -72 c-7 -2 -19 -2 -25 0 -7 3 -2 5 12
5 14 0 19 -2 13 -5z m-1039 -22 c8 -12 -30 -131 -49 -155 -20 -26 -19 -22 10
65 14 40 23 79 21 86 -6 15 10 18 18 4z m1075 -58 c-13 -16 -25 -30 -26 -32
-2 -2 -3 0 -3 5 0 12 37 54 47 54 4 0 -4 -12 -18 -27z m226 7 c10 -11 16 -20
13 -20 -3 0 -13 9 -23 20 -10 11 -16 20 -13 20 3 0 13 -9 23 -20z m165 6 c0
-8 -4 -26 -10 -40 -12 -31 -34 -36 -25 -5 4 12 9 29 10 38 2 9 4 17 4 19 3 9
21 -1 21 -12z m-1419 -29 c-8 -8 -11 -7 -11 4 0 20 13 34 18 19 3 -7 -1 -17
-7 -23z m-64 -84 c-53 -81 -236 -386 -296 -496 -67 -122 -67 -245 1 -302 16
-14 24 -25 18 -25 -18 0 -58 49 -71 87 -6 19 -9 65 -7 102 4 72 2 69 170 356
166 283 216 360 226 351 2 -3 -16 -36 -41 -73z m1073 1 l-19 -49 -1 37 c0 21
7 43 16 53 25 24 26 14 4 -41z m380 2 c-4 -13 -14 -43 -20 -66 -7 -24 -15 -39
-20 -34 -12 13 20 124 36 124 10 0 11 -6 4 -24z m-33 -130 c-3 -8 -9 -31 -13
-50 -3 -21 -12 -36 -20 -36 -17 0 -17 0 -3 56 7 27 17 44 26 44 9 0 13 -6 10
-14z m-1556 -39 c-10 -9 -11 -8 -5 6 3 10 9 15 12 12 3 -3 0 -11 -7 -18z
m1525 -84 c-3 -10 -28 -101 -57 -203 -28 -102 -56 -193 -61 -203 -20 -39 -18
-6 7 84 14 52 39 149 56 217 22 85 36 122 46 122 9 0 12 -7 9 -17z m-1573
-158 c-3 -9 -8 -14 -10 -11 -3 3 -2 9 2 15 9 16 15 13 8 -4z m-44 -115 c-25
-73 -29 -97 -27 -173 2 -48 0 -87 -4 -87 -5 0 -8 15 -9 33 0 17 -2 50 -3 72
-4 55 10 119 41 188 14 31 27 56 28 55 2 -2 -10 -41 -26 -88z m66 -138 c-6 -7
-35 18 -35 31 0 5 9 2 20 -8 11 -10 18 -20 15 -23z m0 -17 l30 -14 -30 6 c-16
3 -37 9 -45 14 -27 15 11 10 45 -6z m-351 -96 c8 -41 19 -137 26 -214 26 -336
33 -400 61 -585 16 -107 34 -217 39 -245 5 -27 12 -70 15 -95 4 -25 20 -107
36 -183 16 -76 29 -141 29 -144 0 -55 -79 311 -114 527 -37 228 -53 361 -71
590 -15 199 -28 327 -41 400 -4 19 -4 32 0 29 3 -3 13 -39 20 -80z m116 66
c-7 -8 -17 -15 -22 -15 -6 0 -5 7 2 15 7 8 17 15 22 15 6 0 5 -7 -2 -15z
m1660 7 c0 -4 -9 -36 -21 -70 -24 -72 -45 -85 -23 -14 8 26 17 57 20 70 6 21
24 32 24 14z m-1431 -28 c10 -9 -35 -3 -49 6 -11 8 -7 9 15 4 17 -4 32 -8 34
-10z m1371 -167 c0 -17 -7 -45 -15 -61 -19 -35 -19 -34 2 -38 11 -2 5 -9 -20
-23 l-36 -19 -25 23 c-18 17 -25 19 -30 9 -3 -7 -3 1 0 17 4 23 3 27 -5 15 -8
-12 -11 -8 -11 17 0 21 9 42 26 60 14 15 23 22 19 16 -4 -9 -1 -11 9 -7 9 3
14 9 12 13 -2 3 14 7 35 8 38 2 39 2 39 -30z m-1419 -144 c16 -67 29 -126 28
-130 -2 -30 -80 256 -78 289 1 25 21 -39 50 -159z m-382 -13 c0 -23 -15 7 -22
45 l-6 30 14 -30 c8 -16 14 -37 14 -45z m564 35 c-3 -9 -8 -14 -10 -11 -3 3
-2 9 2 15 9 16 15 13 8 -4z m207 -30 c-19 -19 -38 -35 -44 -35 -6 0 7 18 29
40 21 22 41 37 44 35 2 -3 -11 -21 -29 -40z m34 -10 c-9 -14 -21 -25 -27 -25
-6 0 0 11 13 25 13 14 25 25 27 25 2 0 -4 -11 -13 -25z m542 -33 c-3 -6 -23
-20 -43 -31 l-38 -22 38 37 c35 32 59 41 43 16z m424 -7 c0 -8 -4 -15 -10 -15
-5 0 -7 7 -4 15 4 8 8 15 10 15 2 0 4 -7 4 -15z m-1065 -25 c10 -11 16 -20 13
-20 -3 0 -13 9 -23 20 -10 11 -16 20 -13 20 3 0 13 -9 23 -20z m-638 -182 c-3
-8 -6 -5 -6 6 -1 11 2 17 5 13 3 -3 4 -12 1 -19z m342 -58 c0 -8 -7 1 -14 20
-18 46 -17 64 0 25 8 -16 14 -37 14 -45z m-322 -12 c-3 -8 -6 -5 -6 6 -1 11 2
17 5 13 3 -3 4 -12 1 -19z m10 -40 c-3 -8 -6 -5 -6 6 -1 11 2 17 5 13 3 -3 4
-12 1 -19z m-23 -15 c4 -9 3 -19 -2 -22 -5 -3 -1 -35 9 -71 9 -36 18 -56 19
-45 1 15 4 12 11 -10 5 -16 7 -38 5 -47 -2 -10 0 -21 5 -24 12 -7 12 -61 0
-68 -9 -6 -28 56 -61 199 -10 44 -18 71 -19 60 0 -11 11 -69 25 -130 14 -60
27 -123 29 -140 l4 -30 -9 30 c-26 86 -40 140 -51 208 -10 62 -10 78 0 91 17
20 27 20 35 -1z m13 -65 c-3 -7 -5 -2 -5 12 0 14 2 19 5 13 2 -7 2 -19 0 -25z
m402 -398 c6 -74 10 -178 10 -230 l-2 -95 -8 115 c-15 204 -29 342 -49 465
-29 173 -23 183 10 20 16 -77 34 -201 39 -275z m-392 358 c-3 -8 -6 -5 -6 6
-1 11 2 17 5 13 3 -3 4 -12 1 -19z m-30 -180 c-3 -8 -6 -5 -6 6 -1 11 2 17 5
13 3 -3 4 -12 1 -19z m114 -149 c15 -74 25 -137 23 -141 -3 -4 0 -15 6 -25 10
-19 63 -324 56 -330 -2 -2 -11 36 -20 84 -10 49 -29 135 -42 193 -27 112 -74
336 -74 352 0 5 5 8 12 6 7 -3 24 -64 39 -139z m-104 109 c-3 -8 -6 -5 -6 6
-1 11 2 17 5 13 3 -3 4 -12 1 -19z m30 -45 c-3 -10 -5 -4 -5 12 0 17 2 24 5
18 2 -7 2 -21 0 -30z m-20 -5 c-3 -7 -5 -2 -5 12 0 14 2 19 5 13 2 -7 2 -19 0
-25z m30 -40 c-3 -8 -6 -5 -6 6 -1 11 2 17 5 13 3 -3 4 -12 1 -19z m-20 -10
c-3 -8 -6 -5 -6 6 -1 11 2 17 5 13 3 -3 4 -12 1 -19z m-12 -143 c32 -31 32
-53 0 -61 -42 -11 -67 24 -49 70 9 22 21 20 49 -9z m370 -176 c10 -30 -3 -36
-15 -8 -10 22 -10 22 -5 -6 3 -16 9 -46 14 -66 10 -46 -9 -122 -38 -152 -11
-13 -21 -33 -21 -45 0 -25 -8 -27 -43 -11 -18 8 -37 6 -85 -10 -67 -23 -117
-27 -127 -11 -4 6 -11 8 -16 5 -5 -4 -9 -4 -9 -2 0 11 113 68 156 79 38 11 54
22 90 70 35 47 44 66 44 99 0 68 39 109 55 58z m-248 -61 c-3 -8 -6 -5 -6 6
-1 11 2 17 5 13 3 -3 4 -12 1 -19z m10 -50 c-3 -8 -6 -5 -6 6 -1 11 2 17 5 13
3 -3 4 -12 1 -19z m789 -32 c61 -22 70 -31 23 -27 -8 1 -21 -10 -29 -24 -18
-34 -33 -32 -25 5 6 26 3 31 -18 39 -25 10 -45 31 -30 31 5 0 40 -11 79 -24z
m-779 -8 c-3 -8 -6 -5 -6 6 -1 11 2 17 5 13 3 -3 4 -12 1 -19z m-177 -29 c0
-6 -4 -7 -10 -4 -5 3 -10 11 -10 16 0 6 5 7 10 4 6 -3 10 -11 10 -16z m930
-70 c30 -44 91 -115 135 -157 44 -42 63 -64 41 -48 l-38 29 17 -26 c9 -14 16
-30 16 -34 0 -4 4 -24 9 -43 5 -19 10 -54 11 -77 3 -47 -7 -63 -130 -201 -57
-64 -67 -72 -77 -57 -24 32 -144 343 -138 358 3 8 1 31 -4 51 -6 20 -9 36 -7
36 2 0 22 -38 44 -85 63 -135 61 -104 -3 50 -14 32 -14 40 0 76 9 21 14 46 10
54 -3 8 6 34 19 57 13 23 20 45 16 48 -10 6 5 50 16 50 4 -1 33 -37 63 -81z
m-524 -55 c-14 -31 -26 -66 -26 -79 0 -31 -11 -38 -31 -19 -16 14 -24 14 -94
-11 -61 -21 -85 -25 -123 -19 l-47 8 55 11 c169 36 182 46 251 172 l34 62 3
-35 c2 -21 -6 -55 -22 -90z m-406 -46 c31 -10 32 -12 15 -25 -11 -7 -29 -13
-42 -13 -18 0 -23 6 -23 25 0 28 4 29 50 13z m28 -141 c3 -21 -3 -30 -22 -39
-30 -13 -31 -12 -40 25 -5 23 -2 29 16 37 32 12 43 7 46 -23z m342 23 c0 -12
-119 -70 -143 -70 -38 0 -12 20 61 49 91 36 82 33 82 21z"/>
<path d="M1460 2658 c-23 -46 -51 -98 -62 -115 -11 -18 -16 -33 -11 -33 8 0
124 222 119 228 -2 1 -23 -35 -46 -80z"/>
<path d="M1827 427 c-26 -45 -37 -70 -24 -54 29 35 88 137 79 137 -4 0 -28
-38 -55 -83z"/>
<path d="M3170 6130 c6 -11 13 -20 16 -20 2 0 0 9 -6 20 -6 11 -13 20 -16 20
-2 0 0 -9 6 -20z"/>
<path d="M1515 4960 c-3 -5 -2 -10 4 -10 5 0 13 5 16 10 3 6 2 10 -4 10 -5 0
-13 -4 -16 -10z"/>
<path d="M3187 3911 c-4 -17 -3 -21 5 -13 5 5 8 16 6 23 -3 8 -7 3 -11 -10z"/>
<path d="M2174 3488 c7 -36 23 -58 41 -58 23 0 65 41 64 63 l0 22 -9 -22 c-5
-13 -16 -23 -24 -23 -8 0 -17 -6 -20 -12 -3 -7 -5 -2 -4 12 3 33 -9 50 -34 50
-18 0 -20 -4 -14 -32z m36 -8 c0 -5 -2 -10 -4 -10 -3 0 -8 5 -11 10 -3 6 -1
10 4 10 6 0 11 -4 11 -10z"/>
<path d="M2246 3495 c-3 -8 -1 -15 4 -15 6 0 10 7 10 15 0 8 -2 15 -4 15 -2 0
-6 -7 -10 -15z"/>
<path d="M4757 3227 c-3 -8 -1 -20 4 -28 6 -10 9 -7 9 14 0 29 -5 35 -13 14z"/>
<path d="M4733 3078 c-32 -19 -43 -38 -23 -38 6 0 10 -6 10 -14 0 -8 10 -13
25 -13 23 0 25 3 25 43 0 24 -1 44 -2 43 -2 0 -18 -10 -35 -21z"/>
<path d="M4521 3060 c-11 -6 -11 -11 1 -29 16 -23 28 -18 28 10 0 22 -12 30
-29 19z"/>
<path d="M4367 3043 c-10 -17 6 -74 23 -83 16 -8 16 -14 7 -35 -9 -19 -17 -24
-32 -19 -43 13 -105 20 -116 13 -14 -8 76 -101 122 -124 37 -20 46 -14 31 20
-17 36 -15 72 5 105 30 52 109 67 157 29 14 -11 26 -16 26 -10 0 6 -9 16 -19
23 -16 10 -17 14 -5 25 8 8 14 26 13 41 0 25 -1 25 -12 -8 -12 -34 -14 -35
-57 -32 -33 3 -53 11 -75 33 -30 28 -59 37 -68 22z"/>
<path d="M4750 2886 c0 -8 5 -18 10 -21 6 -3 10 3 10 14 0 12 -4 21 -10 21 -5
0 -10 -6 -10 -14z"/>
<path d="M4630 2826 c0 -21 -5 -33 -12 -32 -15 1 -18 -5 -18 -40 0 -37 23 -25
35 18 5 20 13 39 16 43 9 8 -1 45 -12 45 -5 0 -9 -15 -9 -34z"/>
<path d="M4757 2793 c-5 -7 -17 -13 -28 -13 -14 0 -19 -7 -19 -26 0 -23 -3
-25 -26 -20 -26 7 -27 6 -21 -33 3 -27 1 -39 -5 -35 -6 4 -7 -2 -3 -17 4 -13
12 -25 16 -27 5 -2 9 -10 9 -17 0 -8 10 -20 23 -26 12 -7 25 -16 28 -20 3 -5
13 -3 22 4 15 11 17 28 15 127 -2 63 -7 109 -11 103z"/>
<path d="M1661 2744 c0 -11 3 -14 6 -6 3 7 2 16 -1 19 -3 4 -6 -2 -5 -13z"/>
<path d="M4469 2736 c7 -9 9 -35 6 -72 -4 -41 -2 -53 4 -39 5 11 10 44 10 73
1 42 -2 52 -15 52 -13 0 -14 -3 -5 -14z"/>
<path d="M4244 2713 c21 -42 20 -46 -6 -38 -21 5 -21 5 2 -9 56 -34 66 -10 19
44 l-31 35 16 -32z"/>
<path d="M3258 2725 c-11 -17 -28 -196 -42 -430 -14 -239 -20 -263 -85 -337
-25 -29 -29 -43 -32 -108 -3 -58 -9 -82 -27 -107 -15 -22 -22 -45 -22 -79 0
-55 -46 -163 -70 -164 -9 0 -26 7 -39 16 -45 32 -51 -13 -24 -169 13 -80 15
-107 5 -142 -8 -29 -8 -53 -2 -76 12 -41 4 -52 -10 -13 -29 79 -53 134 -57
130 -3 -2 0 -13 5 -23 5 -10 31 -81 56 -157 35 -107 46 -154 46 -203 0 -35 7
-98 16 -139 8 -42 13 -78 10 -81 -3 -3 1 -18 10 -34 8 -16 21 -55 29 -86 l15
-58 -6 55 c-4 30 -4 53 -1 50 8 -8 48 -212 43 -217 -2 -3 -10 21 -17 53 -7 31
-14 53 -16 47 -2 -5 10 -75 27 -154 17 -79 38 -179 47 -221 l16 -78 168 0 169
0 0 30 c0 16 -9 52 -20 80 -11 28 -20 55 -20 60 0 14 31 12 77 -4 22 -8 46
-10 53 -6 14 8 7 18 -97 148 -49 60 -83 122 -83 151 0 12 11 23 30 30 25 8 30
16 30 41 0 34 26 52 41 29 15 -24 11 24 -7 72 -20 56 -21 61 -33 274 -6 99
-16 243 -21 320 -6 77 -13 183 -16 235 -3 52 -10 109 -15 125 -15 51 -49 346
-49 425 0 73 -29 319 -51 430 -6 30 -14 109 -18 175 -3 66 -9 115 -13 110z
m-28 -1452 c0 -16 9 -152 20 -303 24 -319 36 -788 20 -752 -5 13 -31 121 -57
240 -36 170 -47 242 -50 334 -5 152 11 377 33 451 18 61 34 75 34 30z"/>
<path d="M3895 2635 c3 -55 9 -156 15 -225 12 -150 3 -300 -19 -300 -4 0 -13
10 -19 23 -12 22 -11 -44 3 -223 4 -54 9 -143 21 -400 10 -216 19 -517 16
-534 -2 -9 -8 -13 -14 -10 -6 4 -7 -11 -3 -42 10 -71 56 -288 62 -294 3 -3 3
38 -1 90 -22 349 -27 1003 -11 1601 8 345 6 390 -24 382 -13 -3 -21 1 -25 14
-3 10 -3 -27 -1 -82z"/>
<path d="M4126 2681 c-3 -5 1 -12 10 -15 20 -8 29 -1 19 13 -8 13 -22 14 -29
2z"/>
<path d="M1637 2666 c-3 -8 -21 -16 -39 -19 l-33 -4 31 -1 c29 -2 64 21 52 34
-3 3 -8 -2 -11 -10z"/>
<path d="M2308 2580 c-4 -43 5 -42 16 2 3 15 2 29 -3 32 -5 3 -11 -12 -13 -34z"/>
<path d="M1698 2513 c7 -3 16 -2 19 1 4 3 -2 6 -13 5 -11 0 -14 -3 -6 -6z"/>
<path d="M4467 2430 c-3 -11 -1 -23 4 -26 5 -3 9 6 9 20 0 31 -6 34 -13 6z"/>
<path d="M1793 2363 c9 -2 25 -2 35 0 9 3 1 5 -18 5 -19 0 -27 -2 -17 -5z"/>
<path d="M1793 2343 c9 -2 23 -2 30 0 6 3 -1 5 -18 5 -16 0 -22 -2 -12 -5z"/>
<path d="M1797 2260 c8 -48 18 -56 18 -15 0 18 -3 31 -7 29 -3 -2 -9 2 -11 8
-3 7 -3 -3 0 -22z"/>
<path d="M1670 2266 c0 -2 8 -10 18 -17 15 -13 16 -12 3 4 -13 16 -21 21 -21
13z"/>
<path d="M1709 2184 c34 -45 70 -89 82 -100 20 -18 21 -17 72 35 29 28 45 49
36 46 -12 -5 -20 2 -27 24 -6 17 -14 31 -17 31 -3 0 -3 -6 0 -12 4 -7 0 -5 -8
5 -16 20 -28 22 -24 5 1 -7 -7 -12 -18 -13 -13 0 -19 -6 -19 -18 2 -15 -1 -16
-14 -5 -14 12 -14 10 -2 -12 12 -23 12 -24 -3 -11 -10 7 -17 10 -17 5 -1 -5
-24 16 -52 46 l-50 55 61 -81z"/>
<path d="M2700 2214 c19 -8 48 -27 64 -42 23 -22 26 -23 15 -5 -14 23 -78 63
-100 63 -8 -1 2 -8 21 -16z"/>
<path d="M2231 2194 c0 -11 3 -14 6 -6 3 7 2 16 -1 19 -3 4 -6 -2 -5 -13z"/>
<path d="M4706 2097 c3 -10 9 -15 12 -12 3 3 0 11 -7 18 -10 9 -11 8 -5 -6z"/>
<path d="M4340 2080 c11 -7 5 -10 -24 -10 -31 0 -37 -3 -32 -16 3 -9 6 -19 6
-23 0 -4 7 -8 15 -8 9 0 14 6 11 13 -4 9 5 13 27 13 18 -1 46 4 62 11 28 11
28 13 10 20 -30 13 -94 12 -75 0z"/>
<path d="M4681 2071 c-6 -11 -11 -32 -11 -46 l0 -26 -42 30 c-34 24 -53 30
-90 29 -30 -1 -49 -6 -52 -15 -3 -8 -2 -12 3 -9 5 3 14 -1 22 -10 10 -13 9
-16 -9 -21 -15 -3 -22 -13 -22 -29 0 -17 4 -22 15 -18 8 4 15 1 15 -5 0 -6 -5
-11 -11 -11 -8 0 -8 -4 0 -14 18 -21 -2 -28 -51 -16 -24 5 -63 9 -88 9 -25 -1
-36 -3 -25 -6 11 -3 25 -10 30 -15 7 -8 5 -9 -5 -4 -8 4 -7 1 3 -7 18 -15 18
-16 -4 -28 l-23 -12 27 -14 c34 -18 34 -29 0 -36 -34 -6 -36 -5 -35 33 1 36
-8 38 -35 8 -13 -16 -19 -36 -19 -63 l1 -40 60 3 c72 3 98 -13 93 -54 -2 -22
-10 -29 -38 -36 -61 -15 -61 -16 -34 -45 l26 -28 -58 -8 c-39 -6 -65 -5 -76 2
-24 15 -24 15 -61 -23 -24 -24 -45 -35 -80 -40 -26 -4 -47 -12 -47 -17 0 -6
-4 -8 -9 -5 -5 3 -11 -3 -14 -14 -3 -13 -11 -18 -20 -14 -8 3 -17 1 -20 -3 -7
-11 12 -93 25 -110 5 -7 5 -14 -1 -18 -7 -4 -6 -16 4 -36 9 -16 13 -34 10 -39
-3 -6 -1 -10 5 -10 7 0 10 -6 7 -14 -3 -8 1 -20 9 -26 8 -7 15 -10 15 -6 1 3
3 11 4 16 1 6 3 20 4 33 5 67 37 -72 44 -194 2 -19 6 -25 19 -21 9 2 28 -7 43
-22 24 -24 25 -28 11 -48 -9 -12 -16 -35 -16 -51 l0 -28 22 21 c12 11 26 20
30 20 5 0 6 5 3 10 -3 6 -3 19 0 31 5 16 9 18 21 8 18 -15 29 -5 19 18 -17 39
-15 62 7 82 22 21 22 21 1 21 -12 0 -35 13 -52 29 -43 40 -44 94 -3 115 18 9
33 11 43 5 8 -5 28 -9 45 -9 19 0 39 -9 54 -25 28 -30 46 -32 60 -5 6 11 16
20 22 20 6 0 19 7 28 15 15 14 20 12 49 -20 30 -34 61 -46 61 -25 0 11 49 35
64 31 12 -3 35 31 36 52 0 11 4 15 12 11 8 -5 9 -2 5 10 -5 13 -2 16 12 14 36
-6 51 20 51 88 0 34 -4 66 -10 69 -5 3 -10 17 -10 30 0 13 5 27 10 30 17 11
11 35 -9 35 -11 0 -27 3 -37 7 -16 6 -16 7 2 15 11 5 -1 6 -31 3 -54 -6 -107
5 -112 22 -2 6 5 14 16 18 16 5 20 12 15 31 -5 18 -2 24 9 24 9 0 23 10 31 21
14 20 13 23 -10 41 -13 11 -24 28 -24 37 0 14 -6 17 -25 13 -22 -4 -28 2 -45
39 -29 65 -26 76 21 90 31 10 42 10 48 1 9 -15 91 59 91 83 0 8 4 15 9 15 18
0 18 26 0 48 -18 22 -18 22 -28 3z m-140 -104 c-13 -13 -31 0 -24 19 4 11 8
12 20 3 9 -8 10 -16 4 -22z m-61 -191 c0 -34 14 -40 35 -16 34 38 94 15 80
-30 -15 -46 -89 -46 -136 1 -11 11 -27 19 -36 19 -14 0 -12 4 7 25 30 32 50
32 50 1z m-10 -172 c0 -8 -4 -12 -10 -9 -5 3 -10 -3 -10 -14 0 -24 -4 -25 -31
-11 -30 17 -24 40 12 40 20 0 28 4 23 12 -4 7 -3 8 4 4 7 -4 12 -14 12 -22z"/>
<path d="M1843 2073 c-15 -5 -17 -23 -4 -23 5 0 11 7 15 15 3 8 4 15 3 14 -1
0 -8 -3 -14 -6z"/>
<path d="M4250 1948 c-12 -22 -12 -22 6 -6 10 10 15 20 12 24 -4 3 -12 -5 -18
-18z"/>
<path d="M4410 1956 c0 -2 7 -9 15 -16 9 -7 15 -8 15 -2 0 5 -7 12 -15 16 -8
3 -15 4 -15 2z"/>
<path d="M3999 1926 c7 -9 11 -22 8 -30 -4 -9 3 -16 16 -20 21 -6 20 -8 -18
-42 l-40 -35 33 5 c52 9 94 45 90 79 -2 16 3 32 12 37 8 5 11 10 5 10 -5 1
-35 3 -65 6 -49 5 -53 4 -41 -10z m46 -16 c3 -5 1 -10 -4 -10 -6 0 -11 5 -11
10 0 6 2 10 4 10 3 0 8 -4 11 -10z"/>
<path d="M4211 1894 c-11 -15 -21 -33 -21 -40 0 -21 -29 -44 -48 -37 -13 5
-15 3 -5 -7 10 -11 17 -10 37 4 15 9 26 21 26 27 0 6 4 8 8 5 9 -5 37 62 29
70 -3 3 -14 -7 -26 -22z"/>
<path d="M4716 918 c-8 -41 3 -150 15 -142 5 3 9 38 9 77 0 82 -13 118 -24 65z"/>
<path d="M4181 824 c0 -11 3 -14 6 -6 3 7 2 16 -1 19 -3 4 -6 -2 -5 -13z"/>
<path d="M4576 818 c-21 -32 -18 -71 6 -76 21 -4 29 24 20 68 l-8 35 -18 -27z"/>
<path d="M4305 800 c-3 -5 -1 -10 4 -10 6 0 11 5 11 10 0 6 -2 10 -4 10 -3 0
-8 -4 -11 -10z"/>
<path d="M2194 572 c13 -15 31 -22 57 -22 50 0 59 17 11 23 -20 3 -48 8 -62
12 -25 8 -25 8 -6 -13z"/>
<path d="M3936 530 c9 -30 22 -68 30 -85 l14 -30 -5 34 c-3 18 -5 49 -5 67 0
19 -5 34 -11 34 -7 0 -18 8 -25 18 -10 13 -10 3 2 -38z"/>
</g>
</svg>
